<svg width="26" height="26" viewBox="0 0 26 26" fill="none" xmlns="http://www.w3.org/2000/svg">
<mask id="path-1-inside-1_6_12" fill="white">
<path fill-rule="evenodd" clip-rule="evenodd" d="M14.0496 3.24621C13.5325 2.83253 12.8134 2.80299 12.2674 3.15756L12.1447 3.24621L7.76113 6.75302C7.32712 7.10025 7.05631 7.60809 7.00648 8.15642L6.99814 8.34053L6.99814 10.9017L4.96514 10.9017C3.89335 10.9017 3.01532 11.731 2.93771 12.7829L2.93213 12.9347L2.93213 20.965C2.93213 21.5414 3.36823 22.0159 3.92845 22.0766L4.05029 22.0832L22.144 22.0832C22.7204 22.0832 23.1949 21.6471 23.2556 21.0869L23.2622 20.965L23.2622 12.9347C23.2622 11.8629 22.4328 10.9848 21.3809 10.9072L21.2292 10.9017L19.1962 10.9017L19.1962 8.34053C19.1962 7.78469 18.9688 7.25598 18.5717 6.87454L18.4332 6.75302L14.0496 3.24621ZM13.0972 5.08772L17.1632 8.34053L17.1632 20.05L9.03114 20.05L9.03114 8.34053L13.0972 5.08772ZM4.96514 12.9347L6.99814 12.9347L6.99814 20.0502L4.96514 20.0502L4.96514 12.9347ZM19.1962 12.9347L21.2292 12.9347L21.2292 20.0502L19.1962 20.0502L19.1962 12.9347ZM13.0972 8.86865C11.4129 8.86865 10.0476 10.234 10.0476 11.9182C10.0476 13.6024 11.4129 14.9677 13.0972 14.9677C14.7814 14.9677 16.1467 13.6024 16.1467 11.9182C16.1467 10.234 14.7814 8.86865 13.0972 8.86865ZM13.0972 10.9017C13.6586 10.9017 14.1137 11.3567 14.1137 11.9182C14.1137 12.4796 13.6586 12.9347 13.0972 12.9347C12.5357 12.9347 12.0806 12.4796 12.0806 11.9182C12.0806 11.3567 12.5357 10.9017 13.0972 10.9017Z"/>
</mask>
<path d="M14.0496 3.24621L-6.77344 29.2753L-6.77414 29.2747L14.0496 3.24621ZM12.2674 3.15756L-7.24868 -23.8653L-6.58016 -24.3481L-5.88859 -24.7972L12.2674 3.15756ZM12.1447 3.24621L-8.67834 -22.7829L-8.03712 -23.2958L-7.37142 -23.7766L12.1447 3.24621ZM7.76113 6.75302L-13.063 -19.2751L-13.0619 -19.2761L7.76113 6.75302ZM7.00648 8.15642L-26.2927 6.64749L-26.2585 5.89261L-26.1901 5.14005L7.00648 8.15642ZM6.99814 8.34053L-26.3352 8.34053V7.58568L-26.301 6.8316L6.99814 8.34053ZM6.99814 10.9017L40.3315 10.9017L40.3315 44.235L6.99814 44.235L6.99814 10.9017ZM2.93771 12.7829L-30.3731 11.5588L-30.3505 10.944L-30.3053 10.3305L2.93771 12.7829ZM2.93213 12.9347L-30.4012 12.9347V12.3224L-30.3787 11.7105L2.93213 12.9347ZM3.92845 22.0766L2.13599 55.3617L1.23466 55.3132L0.337276 55.2159L3.92845 22.0766ZM4.05029 22.0832L4.05029 55.4165H3.1534L2.25782 55.3683L4.05029 22.0832ZM23.2556 21.0869L56.5407 22.8794L56.4922 23.7806L56.3949 24.678L23.2556 21.0869ZM23.2622 20.965L56.5955 20.965V21.8619L56.5473 22.7576L23.2622 20.965ZM21.3809 10.9072L22.6051 -22.4036L23.2199 -22.381L23.8334 -22.3358L21.3809 10.9072ZM21.2292 10.9017L21.2292 -22.4317L21.8415 -22.4317L22.4534 -22.4092L21.2292 10.9017ZM19.1962 10.9017L19.1962 44.235L-14.1372 44.235L-14.1372 10.9017L19.1962 10.9017ZM18.5717 6.87454L40.552 -18.185L41.12 -17.6868L41.6648 -17.1633L18.5717 6.87454ZM18.4332 6.75302L39.2562 -19.276L39.8458 -18.8044L40.4134 -18.3065L18.4332 6.75302ZM13.0972 5.08772L-7.72602 -20.9412L13.0972 -37.5998L33.9203 -20.9412L13.0972 5.08772ZM17.1632 8.34053L37.9863 -17.6884L50.4965 -7.6803L50.4965 8.34053L17.1632 8.34053ZM17.1632 20.05L50.4965 20.05L50.4965 53.3833L17.1632 53.3833L17.1632 20.05ZM9.03114 20.05L9.03114 53.3833L-24.3022 53.3833L-24.3022 20.05L9.03114 20.05ZM9.03114 8.34053L-24.3022 8.34053L-24.3022 -7.6803L-11.792 -17.6884L9.03114 8.34053ZM4.96514 12.9347L-28.3682 12.9347L-28.3682 -20.3987L4.96514 -20.3987L4.96514 12.9347ZM6.99814 12.9347L6.99814 -20.3987L40.3315 -20.3987L40.3315 12.9347L6.99814 12.9347ZM6.99814 20.0502L40.3315 20.0502L40.3315 53.3835L6.99814 53.3835L6.99814 20.0502ZM4.96514 20.0502L4.96514 53.3835L-28.3682 53.3835L-28.3682 20.0502L4.96514 20.0502ZM19.1962 12.9347L-14.1372 12.9347L-14.1372 -20.3987L19.1962 -20.3987L19.1962 12.9347ZM21.2292 12.9347L21.2292 -20.3987L54.5625 -20.3987L54.5625 12.9347L21.2292 12.9347ZM21.2292 20.0502L54.5625 20.0502L54.5625 53.3835L21.2292 53.3835L21.2292 20.0502ZM19.1962 20.0502L19.1962 53.3835L-14.1372 53.3835L-14.1372 20.0502L19.1962 20.0502ZM-6.77414 29.2747C4.02118 37.9114 19.0186 38.5196 30.4234 31.1123L-5.88859 -24.7972C6.60817 -32.9136 23.0439 -32.2463 34.8734 -22.7823L-6.77414 29.2747ZM31.7835 30.1804L31.6608 30.269L-7.37142 -23.7766L-7.24868 -23.8653L31.7835 30.1804ZM32.9677 29.2753L28.5842 32.7821L-13.0619 -19.2761L-8.67834 -22.7829L32.9677 29.2753ZM28.5853 32.7812C35.2676 27.4349 39.4357 19.6174 40.2031 11.1728L-26.1901 5.14005C-25.3231 -4.40119 -20.6134 -13.2344 -13.063 -19.2751L28.5853 32.7812ZM40.3056 9.66534L40.2973 9.84945L-26.301 6.8316L-26.2927 6.64749L40.3056 9.66534ZM40.3315 8.34053L40.3315 10.9017L-26.3352 10.9017L-26.3352 8.34053L40.3315 8.34053ZM6.99814 44.235L4.96514 44.235L4.96514 -22.4317L6.99814 -22.4317L6.99814 44.235ZM4.96514 44.235C21.4807 44.235 34.9834 31.4648 36.1807 15.2354L-30.3053 10.3305C-28.9528 -8.00289 -13.694 -22.4317 4.96514 -22.4317L4.96514 44.235ZM36.2486 14.0071L36.243 14.1588L-30.3787 11.7105L-30.3731 11.5588L36.2486 14.0071ZM36.2655 12.9347L36.2655 20.965L-30.4012 20.965L-30.4012 12.9347L36.2655 12.9347ZM36.2655 20.965C36.2655 4.33715 23.6956 -9.30978 7.51963 -11.0627L0.337276 55.2159C-16.9591 53.3416 -30.4012 38.7456 -30.4012 20.965L36.2655 20.965ZM5.72092 -11.2085L5.84275 -11.2019L2.25782 55.3683L2.13599 55.3617L5.72092 -11.2085ZM4.05029 -11.2502L22.144 -11.2502L22.144 55.4165L4.05029 55.4165L4.05029 -11.2502ZM22.144 -11.2502C5.516 -11.2502 -8.13084 1.31987 -9.88372 17.4958L56.3949 24.678C54.5206 41.9743 39.9248 55.4165 22.144 55.4165L22.144 -11.2502ZM-10.0295 19.2943L-10.0229 19.1725L56.5473 22.7576L56.5407 22.8794L-10.0295 19.2943ZM-10.0712 20.965L-10.0712 12.9347L56.5955 12.9347L56.5955 20.965L-10.0712 20.965ZM-10.0712 12.9347C-10.0712 29.4506 2.69933 42.9529 18.9284 44.1502L23.8334 -22.3358C42.1663 -20.9832 56.5955 -5.7249 56.5955 12.9347L-10.0712 12.9347ZM20.1567 44.2181L20.005 44.2125L22.4534 -22.4092L22.6051 -22.4036L20.1567 44.2181ZM21.2292 44.235L19.1962 44.235L19.1962 -22.4317L21.2292 -22.4317L21.2292 44.235ZM-14.1372 10.9017L-14.1372 8.34053L52.5295 8.34053L52.5295 10.9017L-14.1372 10.9017ZM-14.1372 8.34053C-14.1372 16.8999 -10.6357 25.0384 -4.52138 30.9124L41.6648 -17.1633C48.5732 -10.5264 52.5295 -1.33048 52.5295 8.34053L-14.1372 8.34053ZM-3.40852 31.9341L-3.54707 31.8126L40.4134 -18.3065L40.552 -18.185L-3.40852 31.9341ZM-2.38989 32.7821L-6.77344 29.2753L34.8727 -22.7828L39.2562 -19.276L-2.38989 32.7821ZM33.9203 -20.9412L37.9863 -17.6884L-3.66001 34.3695L-7.72602 31.1167L33.9203 -20.9412ZM50.4965 8.34053L50.4965 20.05L-16.1702 20.05L-16.1702 8.34053L50.4965 8.34053ZM17.1632 53.3833L9.03114 53.3833L9.03114 -13.2834L17.1632 -13.2834L17.1632 53.3833ZM-24.3022 20.05L-24.3022 8.34053L42.3645 8.34053L42.3645 20.05L-24.3022 20.05ZM-11.792 -17.6884L-7.72602 -20.9412L33.9203 31.1167L29.8543 34.3695L-11.792 -17.6884ZM4.96514 -20.3987L6.99814 -20.3987L6.99814 46.268L4.96514 46.268L4.96514 -20.3987ZM40.3315 12.9347L40.3315 20.0502L-26.3352 20.0502L-26.3352 12.9347L40.3315 12.9347ZM6.99814 53.3835L4.96514 53.3835L4.96514 -13.2832L6.99814 -13.2832L6.99814 53.3835ZM-28.3682 20.0502L-28.3682 12.9347L38.2985 12.9347L38.2985 20.0502L-28.3682 20.0502ZM19.1962 -20.3987L21.2292 -20.3987L21.2292 46.268L19.1962 46.268L19.1962 -20.3987ZM54.5625 12.9347L54.5625 20.0502L-12.1042 20.0502L-12.1042 12.9347L54.5625 12.9347ZM21.2292 53.3835L19.1962 53.3835L19.1962 -13.2832L21.2292 -13.2832L21.2292 53.3835ZM-14.1372 20.0502L-14.1372 12.9347L52.5295 12.9347L52.5295 20.0502L-14.1372 20.0502ZM13.0972 42.202C29.8228 42.202 43.381 28.6431 43.381 11.9182L-23.2857 11.9182C-23.2857 -8.17516 -6.99695 -24.4647 13.0972 -24.4647L13.0972 42.202ZM43.381 11.9182C43.381 -4.80709 29.8224 -18.3657 13.0972 -18.3657L13.0972 48.301C-6.99659 48.301 -23.2857 32.0119 -23.2857 11.9182L43.381 11.9182ZM13.0972 -18.3657C-3.6281 -18.3657 -17.1867 -4.80709 -17.1867 11.9182L49.48 11.9182C49.48 32.0119 33.1909 48.301 13.0972 48.301L13.0972 -18.3657ZM-17.1867 11.9182C-17.1867 28.6431 -3.62846 42.202 13.0972 42.202L13.0972 -24.4647C33.1912 -24.4647 49.48 -8.17516 49.48 11.9182L-17.1867 11.9182ZM13.0972 -22.4317C32.0681 -22.4317 47.447 -7.05274 47.447 11.9182L-19.2197 11.9182C-19.2197 29.7662 -4.75093 44.235 13.0972 44.235L13.0972 -22.4317ZM47.447 11.9182C47.447 30.8891 32.0681 46.268 13.0972 46.268L13.0972 -20.3987C-4.75093 -20.3987 -19.2197 -5.92992 -19.2197 11.9182L47.447 11.9182ZM13.0972 46.268C-5.87376 46.268 -21.2527 30.8891 -21.2527 11.9182L45.414 11.9182C45.414 -5.92992 30.9452 -20.3987 13.0972 -20.3987L13.0972 46.268ZM-21.2527 11.9182C-21.2527 -7.05274 -5.87376 -22.4317 13.0972 -22.4317L13.0972 44.235C30.9452 44.235 45.414 29.7662 45.414 11.9182L-21.2527 11.9182Z" fill="white" mask="url(#path-1-inside-1_6_12)"/>
</svg>
